# Blender v2.79 (sub 0) OBJ File: ''
# www.blender.org
o Cylinder_Cylinder.001
v 0.000000 -1.000000 -1.000000
v 0.000000 1.000000 -1.000000
v 0.382683 -1.000000 -0.923880
v 0.382683 1.000000 -0.923880
v 0.707107 -1.000000 -0.707107
v 0.707107 1.000000 -0.707107
v 0.923880 -1.000000 -0.382683
v 0.923880 1.000000 -0.382683
v 1.000000 -1.000000 0.000000
v 1.000000 1.000000 0.000000
v 0.923880 -1.000000 0.382684
v 0.923880 1.000000 0.382684
v 0.707107 -1.000000 0.707107
v 0.707107 1.000000 0.707107
v 0.382683 -1.000000 0.923880
v 0.382683 1.000000 0.923880
v 0.000000 -1.000000 1.000000
v 0.000000 1.000000 1.000000
v -0.382683 -1.000000 0.923880
v -0.382683 1.000000 0.923880
v -0.707107 -1.000000 0.707107
v -0.707107 1.000000 0.707107
v -0.923880 -1.000000 0.382684
v -0.923880 1.000000 0.382684
v -1.000000 -1.000000 -0.000000
v -1.000000 1.000000 -0.000000
v -0.923879 -1.000000 -0.382684
v -0.923879 1.000000 -0.382684
v -0.707107 -1.000000 -0.707107
v -0.707107 1.000000 -0.707107
v -0.382683 -1.000000 -0.923880
v -0.382683 1.000000 -0.923880
vt 0.382683 0.384089
vt 0.089790 0.453064
vt 0.324423 0.037329
vt 0.031530 0.596696
vt 0.324423 0.527721
vt 0.089790 0.943456
vt 0.031530 0.106304
vt 0.089790 0.037329
vt 0.165911 0.000000
vt 0.248303 0.000000
vt 0.382683 0.106304
vt 0.414213 0.196424
vt 0.414213 0.293969
vt 0.324423 0.453064
vt 0.248303 0.490393
vt 0.165911 0.490393
vt 0.031530 0.384089
vt 0.000000 0.293969
vt 0.000000 0.196424
vt 0.382683 0.874481
vt 0.324423 0.943456
vt 0.248303 0.980785
vt 0.165911 0.980785
vt 0.031530 0.874481
vt 0.000000 0.784361
vt 0.000000 0.686816
vt 0.089790 0.527722
vt 0.165911 0.490393
vt 0.248303 0.490393
vt 0.382683 0.596696
vt 0.414214 0.686816
vt 0.414214 0.784362
vt 0.630986 0.000000
vt 0.707107 0.500000
vt 0.630986 0.500000
vt 0.707107 0.000000
vt 0.765367 0.500000
vt 1.000000 1.000000
vt 0.923879 0.500000
vt 1.000000 0.500000
vt 0.923879 1.000000
vt 0.841487 0.500000
vt 0.841487 1.000000
vt 0.765367 0.500000
vt 0.414213 0.500000
vt 0.472474 1.000000
vt 0.414214 1.000000
vt 0.472474 0.500000
vt 0.548594 1.000000
vt 0.548594 0.500000
vt 0.630986 1.000000
vt 0.630986 0.500000
vt 0.707107 1.000000
vt 0.707107 0.500000
vt 0.765367 1.000000
vt 1.000000 0.500000
vt 0.923879 0.000000
vt 1.000000 0.000000
vt 0.923880 0.500000
vt 0.841487 0.000000
vt 0.841487 0.500000
vt 0.765367 0.000000
vt 0.414213 0.000000
vt 0.472474 0.500000
vt 0.414214 0.500000
vt 0.472474 0.000000
vt 0.548594 0.500000
vt 0.548594 0.000000
vt 0.765367 0.000000
vt 0.765367 1.000000
vt 0.765367 0.500000
vt 0.765367 0.500000
vn 0.0000 1.0000 -0.0000
vn 0.0000 -1.0000 0.0000
vn 0.0000 0.6657 -0.7462
vn 0.2855 -0.6657 -0.6894
vn 0.0000 -0.6657 -0.7462
vn 0.2855 0.6657 -0.6894
vn 0.5276 -0.6657 -0.5276
vn 0.5276 0.6657 -0.5276
vn 0.6894 -0.6657 -0.2855
vn 0.6894 0.6657 -0.2855
vn 0.7462 -0.6657 0.0000
vn 0.7462 0.6657 0.0000
vn 0.6894 -0.6657 0.2855
vn 0.6894 0.6657 0.2855
vn 0.5276 -0.6657 0.5276
vn 0.5276 0.6657 0.5276
vn 0.2855 -0.6657 0.6894
vn 0.2855 0.6657 0.6894
vn 0.0000 -0.6657 0.7462
vn 0.0000 0.6657 0.7462
vn -0.2855 -0.6657 0.6894
vn -0.2855 0.6657 0.6894
vn -0.5276 -0.6657 0.5276
vn -0.5276 0.6657 0.5276
vn -0.6894 -0.6657 0.2855
vn -0.6894 0.6657 0.2855
vn -0.7462 -0.6657 0.0000
vn -0.7462 0.6657 0.0000
vn -0.6894 -0.6657 -0.2855
vn -0.6894 0.6657 -0.2855
vn -0.5276 -0.6657 -0.5276
vn -0.5276 0.6657 -0.5276
vn -0.2855 -0.6657 -0.6894
vn -0.2855 0.6657 -0.6894
s off
f 22/1/1 14/2/1 30/3/1
f 15/4/2 23/5/2 7/6/2
f 6/7/1 4/8/1 2/9/1
f 2/9/1 32/10/1 30/3/1
f 30/3/1 28/11/1 26/12/1
f 26/12/1 24/13/1 30/3/1
f 22/1/1 20/14/1 14/2/1
f 18/15/1 16/16/1 14/2/1
f 14/2/1 12/17/1 6/7/1
f 10/18/1 8/19/1 6/7/1
f 6/7/1 2/9/1 30/3/1
f 30/3/1 24/13/1 22/1/1
f 20/14/1 18/15/1 14/2/1
f 12/17/1 10/18/1 6/7/1
f 6/7/1 30/3/1 14/2/1
f 31/20/2 1/21/2 3/22/2
f 3/22/2 5/23/2 31/20/2
f 7/6/2 9/24/2 11/25/2
f 11/25/2 13/26/2 7/6/2
f 15/4/2 17/27/2 23/5/2
f 19/28/2 21/29/2 23/5/2
f 23/5/2 25/30/2 27/31/2
f 27/31/2 29/32/2 31/20/2
f 31/20/2 5/23/2 7/6/2
f 7/6/2 13/26/2 15/4/2
f 17/27/2 19/28/2 23/5/2
f 23/5/2 27/31/2 31/20/2
f 31/20/2 7/6/2 23/5/2
s 1
f 2/33/3 3/34/4 1/35/5
f 4/36/6 5/37/7 3/34/4
f 6/38/8 7/39/9 5/40/7
f 8/41/10 9/42/11 7/39/9
f 10/43/12 11/44/13 9/42/11
f 12/45/14 13/46/15 11/47/13
f 14/48/16 15/49/17 13/46/15
f 16/50/18 17/51/19 15/49/17
f 18/52/20 19/53/21 17/51/19
f 20/54/22 21/55/23 19/53/21
f 22/56/24 23/57/25 21/58/23
f 24/59/26 25/60/27 23/57/25
f 26/61/28 27/62/29 25/60/27
f 28/63/30 29/64/31 27/65/29
f 30/66/32 31/67/33 29/64/31
f 32/68/34 1/35/5 31/67/33
f 2/33/3 4/36/6 3/34/4
f 4/36/6 6/69/8 5/37/7
f 6/38/8 8/41/10 7/39/9
f 8/41/10 10/43/12 9/42/11
f 10/43/12 12/70/14 11/44/13
f 12/45/14 14/48/16 13/46/15
f 14/48/16 16/50/18 15/49/17
f 16/50/18 18/52/20 17/51/19
f 18/52/20 20/54/22 19/53/21
f 20/54/22 22/71/24 21/55/23
f 22/56/24 24/59/26 23/57/25
f 24/59/26 26/61/28 25/60/27
f 26/61/28 28/72/30 27/62/29
f 28/63/30 30/66/32 29/64/31
f 30/66/32 32/68/34 31/67/33
f 32/68/34 2/33/3 1/35/5
